Coordinates
version=1
nRows=17
nColumns=40
inDegrees=yes

Units are S.I. units (second, meters, Newtons, ...)
Angles are in degrees.

endheader
time	pelvis_tilt	pelvis_list	pelvis_rotation	pelvis_tx	pelvis_ty	pelvis_tz	hip_flexion_r	hip_adduction_r	hip_rotation_r	knee_angle_r	knee_angle_r_beta	ankle_angle_r	subtalar_angle_r	mtp_angle_r	hip_flexion_l	hip_adduction_l	hip_rotation_l	knee_angle_l	knee_angle_l_beta	ankle_angle_l	subtalar_angle_l	mtp_angle_l	lumbar_extension	lumbar_bending	lumbar_rotation	arm_flex_r	arm_add_r	arm_rot_r	elbow_flex_r	pro_sup_r	wrist_flex_r	wrist_dev_r	arm_flex_l	arm_add_l	arm_rot_l	elbow_flex_l	pro_sup_l	wrist_flex_l	wrist_dev_l
      1.44000000	      3.33411168	      1.68679249	     -1.05982207	      0.51149076	      0.90403337	     -1.41988616	     21.55987731	     -2.23092390	     -6.51244481	    -50.05981603	     -0.87370861	      1.29592248	    -14.26947149	      8.50244278	     -3.18367553	     -5.10932247	      7.42442112	    -14.93237449	     -0.26061910	     10.74592004	     -3.49276773	     -3.20883766	     -6.84618187	      0.11840833	     -1.96105087	      4.79551357	     -8.76659463	     16.43580806	     17.00580652	     89.95437384	      0.00000000	      0.00000000	      2.41219540	     11.06715961	    -27.34236277	     17.65218897	     89.95437384	      0.00000000	      0.00000000
      1.45000000	      4.26402723	      0.98503869	     -0.39729903	      0.52444306	      0.90521118	     -1.42066011	     20.75033751	     -1.43425941	     -7.52517040	    -46.61663632	     -0.81361379	      1.81826834	    -13.53162151	      8.63058527	     -5.84358716	     -4.29453957	      7.38816171	    -13.57854605	     -0.23699034	     10.62186715	     -4.73276258	     -3.59903568	     -7.91477277	      1.03806673	     -2.64825495	      4.40195054	     -8.71003786	     15.92540867	     16.31505623	     89.95437384	      0.00000000	      0.00000000	      3.38037816	     10.99253076	    -24.67789983	     18.55752245	     89.95437384	      0.00000000	      0.00000000
      1.46000000	      4.50759520	      0.71624101	      0.11395005	      0.53680891	      0.90480614	     -1.42134531	     20.96701526	     -1.11153939	     -8.21076982	    -43.48010391	     -0.75887097	      2.11992033	    -12.49610893	      8.48511245	     -7.36724528	     -3.93150304	      7.48031271	    -12.88682521	     -0.22491753	     10.66541403	     -5.43838735	     -3.85315734	     -8.20471183	      1.45677524	     -3.00950220	      3.79659212	     -8.68868294	     15.57727766	     15.76038402	     89.95437384	      0.00000000	      0.00000000	      4.42505112	     11.12060045	    -23.28668725	     19.59272118	     89.95437384	      0.00000000	      0.00000000
      1.47000000	      4.83370957	      0.53265078	      0.57452432	      0.54939335	      0.90421897	     -1.42186085	     21.05046439	     -0.92412852	     -9.19844648	    -40.24067498	     -0.70233227	      2.24140037	    -11.42833158	      8.19740870	     -8.97371322	     -3.60468867	      7.87134215	    -12.21336426	     -0.21316342	     10.56360439	     -6.57150997	     -4.19344360	     -8.56636550	      1.76938465	     -3.28747638	      3.19086769	     -8.64986187	     15.20963340	     15.20851359	     89.95437384	      0.00000000	      0.00000000	      5.47325494	     11.32532350	    -22.45096105	     20.65059197	     89.95437384	      0.00000000	      0.00000000
      1.48000000	      4.34445840	      0.91215984	      0.77218949	      0.56115572	      0.90193972	     -1.42243447	     22.43484020	     -1.33844331	     -9.78602486	    -37.71200940	     -0.65819873	      2.27811689	    -10.91572177	      8.15114467	     -9.38525795	     -4.02097246	      8.13623639	    -12.04930229	     -0.21030000	     10.89715103	     -6.67671269	     -4.24477359	     -8.08841570	      1.42551765	     -3.21264915	      2.44664922	     -8.66079364	     15.22316063	     14.73264074	     89.95437384	      0.00000000	      0.00000000	      6.62702188	     11.54256565	    -22.15152136	     21.60106461	     89.95437384	      0.00000000	      0.00000000
      1.49000000	      5.04255146	      0.30148262	      1.60130907	      0.57397935	      0.90167922	     -1.42299643	     21.66342062	     -0.81268630	    -11.19893257	    -33.88125118	     -0.59133939	      1.58766276	     -8.26036750	      7.45386262	    -11.27773422	     -3.05527763	      8.44623980	    -11.58576112	     -0.20220968	     10.79887558	     -8.39734950	     -4.88125750	     -8.86269888	      2.23479079	     -3.91852188	      2.06835911	     -8.45758772	     14.24320686	     14.00610686	     89.95437384	      0.00000000	      0.00000000	      7.52716470	     11.67333168	    -20.68558857	     22.84204054	     89.95437384	      0.00000000	      0.00000000
      1.50000000	      4.72078095	      0.36901953	      2.04987801	      0.58587331	      0.89946009	     -1.42350388	     22.50069860	     -0.93929792	    -12.10354918	    -30.85090496	     -0.53844987	      0.91615351	     -7.11810957	      7.37116598	    -11.77855169	     -3.01826677	      8.28230154	    -11.60226339	     -0.20249770	     11.19087242	     -8.75903405	     -5.06112494	     -8.58711644	      2.24449667	     -4.14125916	      1.45714186	     -8.40704047	     14.25701339	     13.50484981	     89.95437384	      0.00000000	      0.00000000	      8.64460393	     11.88853068	    -20.46514261	     23.81748831	     89.95437384	      0.00000000	      0.00000000
      1.51000000	      4.69522270	      0.22750420	      2.67466185	      0.59798842	      0.89770271	     -1.42404049	     22.77121769	     -0.96782686	    -13.55662232	    -27.61040004	     -0.48189239	      0.31677027	     -5.52861658	      7.15719565	    -12.56154740	     -2.64746059	      8.21138855	    -11.69059402	     -0.20403936	     11.54129887	     -9.27566270	     -5.32288971	     -8.62212178	      2.50387025	     -4.50404251	      0.92282128	     -8.33829529	     14.22646422	     12.99201680	     89.95437384	      0.00000000	      0.00000000	      9.72838886	     12.06701734	    -20.07793523	     24.86280179	     89.95437384	      0.00000000	      0.00000000
      1.52000000	      4.47230661	      0.23707908	      3.18634892	      0.61010884	      0.89554578	     -1.42431537	     23.26560741	     -1.10600231	    -14.86951430	    -24.57934719	     -0.42899054	      0.24106360	     -4.14990848	      6.89149357	    -13.13376226	     -2.45557610	      8.07098886	    -11.79449627	     -0.20585279	     11.74757248	     -9.73876021	     -5.53910831	     -8.43094819	      2.54230797	     -4.73194207	      0.29234818	     -8.24089374	     14.34661185	     12.52742037	     89.95437384	      0.00000000	      0.00000000	     10.81441705	     12.22224437	    -19.76147914	     25.79585450	     89.95437384	      0.00000000	      0.00000000
      1.53000000	      4.68212287	      0.08340098	      3.88894249	      0.62278926	      0.89403131	     -1.42493742	     23.16570726	     -1.44129227	    -17.76131222	    -21.75131202	     -0.37963201	      0.43724510	     -0.74165740	      4.93046215	    -14.17764315	     -1.89792542	      8.46752877	    -11.88138396	     -0.20736927	     11.59702038	    -11.20073606	     -6.35722191	     -8.68033221	      2.84058742	     -5.14372485	     -0.28023790	     -8.23259939	     14.80744882	     12.15918520	     89.95437384	      0.00000000	      0.00000000	     11.84569656	     12.25682443	    -19.19424825	     26.72466632	     89.95437384	      0.00000000	      0.00000000
      1.54000000	      4.14076774	      0.12453360	      4.38587675	      0.63458276	      0.89136414	     -1.42511407	     24.02142904	     -1.64430737	    -19.36002321	    -19.12466384	     -0.33378835	      0.40165574	      0.26198844	      4.39142622	    -14.22706622	     -1.71632324	      8.15232229	    -12.29587163	     -0.21460344	     11.97762712	    -11.45056715	     -6.60845576	     -8.17538465	      2.81887937	     -5.35553104	     -0.81430783	     -8.08908295	     14.93522607	     11.63319100	     89.95437384	      0.00000000	      0.00000000	     12.84704014	     12.41319024	    -19.14897857	     27.68830355	     89.95437384	      0.00000000	      0.00000000
      1.55000000	      3.96952225	      0.08735233	      5.01414458	      0.64710187	      0.88920511	     -1.42542163	     24.52437152	     -2.15788155	    -22.72865086	    -17.19714852	     -0.30014686	      0.28295419	      3.44630591	      1.81848010	    -14.68672840	     -1.30531607	      8.33339005	    -12.69442325	     -0.22155948	     11.87060857	    -12.46593425	     -7.38610615	     -7.99425358	      2.92068513	     -5.61707776	     -1.44318061	     -8.02010076	     15.30135236	     11.34276189	     89.95437384	      0.00000000	      0.00000000	     13.88668884	     12.49059449	    -19.20745209	     28.52447688	     89.95437384	      0.00000000	      0.00000000
      1.56000000	      3.57252922	      0.17931045	      5.70651530	      0.65939394	      0.88673853	     -1.42600353	     25.30784517	     -2.82057799	    -25.80113165	    -15.56705133	     -0.27169630	     -1.12259145	      5.02845583	    -10.44965217	    -14.90954897	     -1.12431362	      7.83475250	    -13.03348931	     -0.22747730	     11.53211557	    -12.40417040	    -10.30213362	     -7.59036105	      2.87913128	     -5.97580059	     -1.98694952	     -7.89416385	     15.71803532	     10.84462256	     89.95437384	      0.00000000	      0.00000000	     14.86641750	     12.50875796	    -19.19529454	     29.30162323	     89.95437384	      0.00000000	      0.00000000
      1.57000000	      3.19923475	      0.39549745	      5.83046721	      0.67192108	      0.88432663	     -1.42565605	     26.20445040	     -3.08645869	    -26.67071210	    -14.66291543	     -0.25591615	     -0.91337877	      4.99887135	    -10.40832371	    -15.31652446	     -1.19861453	      7.76908191	    -13.22193076	     -0.23076623	     11.57821998	    -12.49185257	    -10.30480169	     -7.22496166	      2.63166520	     -5.68803855	     -2.54564143	     -7.72953658	     15.80504763	     10.35073640	     89.95437384	      0.00000000	      0.00000000	     15.87107270	     12.40617757	    -19.06946664	     29.94939593	     89.95437384	      0.00000000	      0.00000000
      1.58000000	      2.74873621	      0.18475421	      6.89748485	      0.68444534	      0.88197756	     -1.42624434	     26.85396846	     -3.35194913	    -28.17133837	    -13.89297812	     -0.24247821	     -1.15695596	      5.83088897	    -10.48052639	    -15.09157778	     -0.47192207	      7.03434054	    -14.27945988	     -0.24922359	     11.49122386	    -13.08233875	    -10.40798784	     -6.67658208	      2.89062495	     -6.40802490	     -3.05435939	     -7.53344056	     15.95082558	      9.87956629	     89.95437384	      0.00000000	      0.00000000	     16.65951269	     12.43921885	    -19.11119365	     30.78874171	     89.95437384	      0.00000000	      0.00000000
      1.59000000	      2.58475721	      0.22916885	      7.56312549	      0.69772215	      0.88001644	     -1.42676975	     27.49977326	     -3.95534534	    -29.07459377	    -14.57781802	     -0.25443092	     -0.92692352	      6.52381654	    -10.70056766	    -15.42762588	     -0.06129363	      7.02546529	    -14.99468828	     -0.26170668	     11.20554851	    -13.99241849	    -10.59315128	     -6.40129952	      2.90737866	     -6.70241437	     -3.60086187	     -7.39019090	     16.12548478	      9.44064405	     89.95437384	      0.00000000	      0.00000000	     17.37314089	     12.31525861	    -18.89129186	     31.57126800	     89.95437384	      0.00000000	      0.00000000
      1.60000000	      2.54907987	      0.21555304	      8.00032889	      0.71130665	      0.87833453	     -1.42713151	     27.96514014	     -4.23455285	    -28.60632740	    -15.56024207	     -0.27157746	     -1.09159743	      5.97525278	    -10.47166396	    -16.01024852	      0.26368018	      6.54693562	    -15.55549566	     -0.27149462	     11.00446807	    -13.88905244	    -10.48682479	     -6.26191290	      3.02128427	     -6.70785597	     -4.19707495	     -7.31790603	     16.21014799	      9.16252011	     89.95437384	      0.00000000	      0.00000000	     18.04117649	     12.08498134	    -18.65984528	     32.31629568	     89.95437384	      0.00000000	      0.00000000
